<svg height="511pt" viewBox="-12 1 511 511.99925" width="511pt" xmlns="http://www.w3.org/2000/svg"><path d="m361.480469 309.242188-17.652344 9.777343c-3.625 2.011719-4.933594 6.574219-2.925781 10.195313 1.367187 2.472656 3.925781 3.867187 6.566406 3.867187 1.226562 0 2.476562-.300781 3.628906-.9375l17.652344-9.78125c3.621094-2.007812 4.933594-6.574219 2.925781-10.195312-2.007812-3.625-6.574219-4.933594-10.195312-2.925781zm0 0"/><path d="m361.480469 287.960938-17.652344 9.777343c-3.625 2.007813-4.9375 6.574219-2.925781 10.199219 1.367187 2.46875 3.925781 3.863281 6.566406 3.863281 1.226562 0 2.476562-.300781 3.625-.9375l17.65625-9.78125c3.621094-2.007812 4.933594-6.570312 2.925781-10.195312-2.007812-3.625-6.574219-4.933594-10.195312-2.925781zm0 0"/><path d="m485.9375 377.816406c.71875-1.171875 1.121094-2.550781 1.121094-3.929687v-65.980469c0-4.144531-3.359375-7.5-7.503906-7.5-4.140626 0-7.5 3.355469-7.5 7.5v54.425781l-72.121094-32.167969v-139.367187l72.121094-39.957031v124.40625c0 4.144531 3.359374 7.5 7.5 7.5 4.144531 0 7.503906-3.355469 7.503906-7.5v-137.136719c0-2.675781-1.523438-5.261719-3.867188-6.558594l-235.777344-130.625c-2.238281-1.234375-5.03125-1.234375-7.269531 0l-235.777343 130.625c-2.382813 1.316407-3.898438 3.929688-3.867188 6.648438v235.6875c0 2.679687 1.519531 5.261719 3.867188 6.5625l103.882812 57.554687c3.625 2.003906 8.1875.695313 10.195312-2.925781 2.007813-3.625.695313-8.191406-2.925781-10.195313l-90.734375-50.269531 69.972656-31.207031 141.519532 78.402344v69.972656l-91.011719-50.417969c-3.621094-2.007812-8.1875-.699219-10.195313 2.925781-2.007812 3.621094-.695312 8.1875 2.925782 10.195313l102.148437 56.589844c2.226563 1.234375 5.042969 1.234375 7.269531 0l107.128907-59.355469c3.625-2.007812 4.933593-6.570312 2.925781-10.195312-2.003906-3.621094-6.570312-4.933594-10.195312-2.925782l-95.996094 53.183594v-69.972656l141.519531-78.402344 69.972656 31.207031-85.769531 47.519531c-3.625 2.007813-4.933594 6.570313-2.925781 10.195313 1.367187 2.472656 3.925781 3.867187 6.566406 3.867187 1.226563 0 2.476563-.304687 3.628906-.941406l98.921875-54.804687c1.109375-.613281 2.082032-1.554688 2.746094-2.632813zm-242.160156-265.222656 133.179687 73.785156-133.179687 73.78125-133.175782-73.78125zm148.65625 65.210938-141.15625-78.203126v-79.386718l212.800781 117.894531zm-156.15625-78.203126-141.152344 78.203126-71.648438-39.695313 212.800782-117.894531zm-220.777344 51.238282 72.121094 39.957031v139.367187l-72.121094 32.167969zm87.125 48.269531 54.441406 30.160156 79.210938 43.886719v131.503906l-133.652344-74.046875zm148.652344 74.046875 133.65625-74.046875v131.503906l-133.65625 74.046875zm0 0"/></svg>