<svg height="511pt" viewBox="1 -23 511.999 511" width="511pt" xmlns="http://www.w3.org/2000/svg"><path d="m440.042969 194.171875c-3.59375-2.058594-8.175781-.8125-10.234375 2.78125-2.058594 3.597656-.808594 8.175781 2.785156 10.234375 41.535156 23.773438 64.40625 54.429688 64.40625 86.316406 0 61.976563-87.355469 116.074219-203.199219 125.835938-4.125.347656-7.1875 3.976562-6.84375 8.101562.332031 3.914063 3.609375 6.871094 7.464844 6.871094.210937 0 .425781-.007812.640625-.027344 59.121094-4.980468 113.460938-21.410156 153.015625-46.257812 41.21875-25.894532 63.921875-59.460938 63.921875-94.523438 0-37.496094-25.554688-72.773437-71.957031-99.332031zm0 0"/><path d="m262.269531 432.523438c.042969-.066407.082031-.132813.121094-.199219.101563-.164063.195313-.332031.285156-.503907.039063-.074218.070313-.148437.105469-.222656.082031-.171875.15625-.347656.222656-.523437.03125-.078125.058594-.152344.085938-.230469.0625-.183594.117187-.367188.164062-.558594.019532-.074218.042969-.152344.0625-.230468.042969-.199219.074219-.398438.101563-.601563.011719-.070313.027343-.140625.035156-.210937.027344-.269532.046875-.546876.046875-.824219 0-.28125-.019531-.554688-.046875-.828125-.007813-.070313-.023437-.136719-.035156-.207032-.027344-.207031-.058594-.40625-.101563-.605468-.019531-.078125-.042968-.152344-.0625-.230469-.046875-.1875-.101562-.375-.164062-.558594-.027344-.078125-.054688-.152343-.085938-.230469-.066406-.179687-.140625-.351562-.222656-.523437-.035156-.074219-.070312-.148437-.105469-.222656-.089843-.175781-.183593-.339844-.285156-.507813-.039063-.0625-.078125-.128906-.121094-.195312-.125-.195313-.265625-.382813-.410156-.566406-.019531-.027344-.039063-.054688-.0625-.082032-.167969-.207031-.347656-.402344-.539063-.585937-.054687-.054688-.113281-.101563-.167968-.15625-.144532-.132813-.289063-.257813-.441406-.378907-.027344-.023437-.050782-.050781-.078126-.070312l-39.394531-30.265625c-3.28125-2.523437-7.992187-1.902344-10.515625 1.378906-2.523437 3.285157-1.90625 7.992188 1.378906 10.515625l21.144532 16.246094c-56.507813-2.816406-108.863282-16.066406-149.320313-38.03125-44.410156-24.109375-68.863281-55.648438-68.863281-88.808594 0-31.886718 22.871094-62.542968 64.40625-86.316406 3.59375-2.058594 4.839844-6.636719 2.785156-10.234375-2.058594-3.59375-6.640625-4.839844-10.234375-2.78125-46.402343 26.558594-71.957031 61.835937-71.957031 99.332031 0 38.914063 27.242188 75.136719 76.707031 101.988282 42.90625 23.292968 98.320313 37.226562 157.867188 39.929687l-22.535157 17.3125c-3.285156 2.523437-3.902343 7.230469-1.378906 10.515625 1.476563 1.921875 3.703125 2.929688 5.953125 2.929688 1.59375 0 3.203125-.503907 4.5625-1.550782l39.394531-30.265625c.027344-.023437.050782-.046875.078126-.070312.152343-.121094.296874-.246094.441406-.378907.054687-.050781.113281-.101562.167968-.152343.191407-.1875.371094-.382813.539063-.589844.023437-.027344.042969-.054687.0625-.082031.144531-.183594.28125-.371094.410156-.566406zm0 0"/><path d="m105.164062 259.148438 147.433594 75.109374c.078125.042969.160156.070313.238282.105469.117187.054688.234374.105469.351562.15625.1875.074219.378906.140625.570312.203125.117188.035156.230469.074219.347657.101563.210937.054687.425781.097656.640625.132812.101562.019531.199218.042969.300781.054688.316406.039062.632813.066406.953125.066406.316406 0 .632812-.027344.953125-.066406.097656-.011719.199219-.035157.300781-.054688.214844-.035156.425782-.074219.640625-.132812.117188-.027344.230469-.066407.347657-.101563.191406-.0625.382812-.128906.570312-.203125.117188-.050781.234375-.101562.351562-.15625.082032-.035156.160157-.0625.242188-.105469l147.429688-75.109374c2.511718-1.28125 4.09375-3.863282 4.09375-6.683594v-30.128906c0-4.140626-3.355469-7.5-7.5-7.5-4.140626 0-7.5 3.359374-7.5 7.5v25.535156l-132.429688 67.46875v-152.523438l132.429688-67.46875v96.992188c0 4.140625 3.359374 7.5 7.5 7.5 4.144531 0 7.5-3.359375 7.5-7.5v-109.230469c0-.339844-.023438-.675781-.070313-1.007813-.015625-.113281-.042969-.21875-.0625-.332031-.039063-.214843-.078125-.429687-.136719-.640625-.035156-.128906-.085937-.253906-.128906-.378906-.058594-.1875-.121094-.375-.199219-.554688-.054687-.128906-.117187-.253906-.179687-.378906-.082032-.171875-.167969-.339844-.261719-.5-.074219-.125-.15625-.242187-.234375-.363281-.101562-.152344-.207031-.304687-.320312-.449219-.089844-.117187-.1875-.226562-.28125-.335937-.121094-.140625-.246094-.273438-.375-.402344-.109376-.105469-.21875-.203125-.332032-.300781-.136718-.121094-.28125-.234375-.425781-.34375-.121094-.09375-.246094-.179688-.375-.265625-.066406-.046875-.128906-.097657-.199219-.140625-.089844-.054688-.1875-.097656-.28125-.148438-.078125-.042968-.148437-.097656-.230468-.140625l-147.433594-75.109375c-2.136719-1.089844-4.667969-1.089844-6.808594 0l-21.207031 10.804688c-3.691407 1.882812-5.160157 6.398437-3.28125 10.085937 1.882812 3.691407 6.394531 5.160157 10.085937 3.28125l17.808594-9.074219 130.910156 66.695313-8.199218 4.179687-122.710938 62.515626-122.710938-62.515626-8.199218-4.179687 86.285156-43.960937c3.691406-1.878907 5.160156-6.394532 3.28125-10.085938-1.882812-3.691406-6.398438-5.160156-10.085938-3.277344l-99.40625 50.640625c-.078124.042969-.152343.097657-.230468.140625-.09375.050782-.191406.09375-.28125.148438-.070313.042968-.128906.09375-.199219.140625-.128906.082031-.25.171875-.375.265625-.144531.109375-.289063.222656-.425781.34375-.113282.097656-.222656.195312-.328125.300781-.132813.128906-.253907.261719-.375.402344-.097657.109375-.195313.21875-.285157.335937-.113281.144532-.21875.296875-.320312.449219-.078125.121094-.160156.238281-.234375.363281-.09375.160156-.175781.332032-.261719.5-.0625.125-.125.25-.179687.375-.078125.183594-.136719.371094-.199219.558594-.042969.125-.089844.246094-.125.375-.058594.214844-.097656.429688-.136719.648438-.019531.109374-.050781.214843-.066406.328124-.042969.332032-.070313.667969-.070313 1.007813v57.277344c0 4.144531 3.359376 7.5 7.5 7.5 4.140626 0 7.5-3.355469 7.5-7.5v-45.039063l132.429688 67.46875v152.523438l-132.429688-67.46875v-77.484375c0-4.144531-3.359374-7.5-7.5-7.5-4.140624 0-7.5 3.355469-7.5 7.5v82.078125c0 2.820312 1.582032 5.402344 4.09375 6.683594zm0 0"/></svg>