<svg height="511pt" viewBox="1 0 511.999 511" width="511pt" xmlns="http://www.w3.org/2000/svg"><path d="m504.480469 452.59375h-181.5l.113281-.234375c1.851562-3.71875.339844-8.234375-3.378906-10.085937-3.71875-1.851563-8.234375-.335938-10.085938 3.378906l-3.457031 6.941406h-100.34375l-3.457031-6.941406c-1.851563-3.71875-6.367188-5.230469-10.085938-3.378906-3.71875 1.851562-5.230468 6.367187-3.378906 10.085937l.113281.234375h-181.5c-4.152343 0-7.519531 3.363281-7.519531 7.519531 0 28.519531 23.203125 51.71875 51.71875 51.71875h408.5625c28.515625 0 51.71875-23.199219 51.71875-51.71875 0-4.152343-3.367188-7.519531-7.519531-7.519531zm-44.199219 44.195312h-408.5625c-17.648438 0-32.421875-12.527343-35.902344-29.152343h480.367188c-3.480469 16.625-18.257813 29.152343-35.902344 29.152343zm0 0"/><path d="m103.410156 262.082031 149.175782 76c.078124.042969.160156.070313.238281.105469.117187.054688.238281.105469.359375.15625.183594.074219.371094.140625.5625.199219.121094.039062.238281.078125.359375.109375.210937.054687.421875.097656.632812.132812.105469.015625.207031.039063.308594.054688.316406.039062.632813.0625.953125.0625h.003906c.316406 0 .636719-.023438.953125-.0625.101563-.015625.203125-.039063.308594-.054688.210937-.039062.421875-.078125.632813-.132812.121093-.03125.238281-.070313.359374-.109375.1875-.058594.375-.125.5625-.199219.121094-.050781.238282-.101562.355469-.15625.082031-.039062.164063-.066406.242188-.105469l149.171875-76c2.519531-1.285156 4.109375-3.871093 4.109375-6.703125v-32.636718c0-4.152344-3.371094-7.519532-7.523438-7.519532-4.152343 0-7.519531 3.367188-7.519531 7.519532v28.027343l-134.132812 68.339844v-154.476563l134.128906-68.335937v96.363281c0 4.152344 3.367187 7.519532 7.523437 7.519532 4.152344 0 7.519531-3.367188 7.519531-7.519532v-108.636718c0-.34375-.023437-.679688-.070312-1.011719-.011719-.113281-.042969-.222657-.0625-.335938-.039062-.214843-.078125-.429687-.136719-.640625-.035156-.128906-.085937-.253906-.128906-.378906-.0625-.1875-.121094-.375-.199219-.558594-.054687-.128906-.121094-.253906-.179687-.378906-.085938-.171875-.167969-.339844-.265625-.503906-.070313-.121094-.152344-.242188-.230469-.359375-.105469-.15625-.210937-.308594-.324219-.453125-.089844-.117188-.1875-.226563-.285156-.339844-.121094-.136719-.242188-.269531-.375-.398438-.105469-.105468-.21875-.207031-.332031-.304687-.136719-.121094-.277344-.234375-.425781-.34375-.121094-.09375-.246094-.179687-.375-.265625-.070313-.042969-.128907-.097656-.199219-.140625-.09375-.054687-.191407-.097656-.285157-.148437-.078124-.046876-.148437-.097657-.230468-.140626l-149.175782-76c-2.144531-1.09375-4.683593-1.09375-6.828124 0l-33.316407 16.972657c-3.703125 1.886719-5.175781 6.417969-3.289062 10.117187 1.886719 3.699219 6.414062 5.171875 10.117187 3.285156l29.902344-15.234374 132.605469 67.5625-132.605469 67.558593-132.605469-67.558593 75.851563-38.644532c3.703125-1.886718 5.175781-6.417968 3.289062-10.117187-1.886718-3.703125-6.414062-5.175781-10.117187-3.289063l-89.007813 45.347656c-.078125.042969-.152344.09375-.230468.140626-.09375.050781-.191407.09375-.285157.148437-.070312.042969-.128906.097656-.199219.140625-.125.085938-.25.171875-.371093.265625-.148438.109375-.292969.222656-.429688.34375-.113281.097656-.222656.199219-.328125.304687-.132812.128907-.257812.261719-.378906.398438-.097656.113281-.191406.222656-.285156.339844-.113282.144531-.21875.296875-.320313.453125-.082031.117187-.160156.238281-.234375.359375-.09375.164062-.179687.335937-.261718.503906-.0625.125-.128907.25-.183594.378906-.074219.183594-.136719.371094-.199219.558594-.042969.125-.089844.25-.125.378906-.058594.210938-.097656.429688-.136719.644532-.019531.113281-.050781.21875-.066406.332031-.042969.332031-.070312.671875-.070312 1.011719v33.074218c0 4.152344 3.367187 7.523438 7.523437 7.523438 4.152344 0 7.519531-3.371094 7.519531-7.523438v-20.800781l134.132813 68.335937v154.476563l-134.132813-68.335937v-103.589844c0-4.15625-3.367187-7.523438-7.519531-7.523438-4.15625 0-7.523437 3.367188-7.523437 7.523438v108.199218c0 2.828126 1.585937 5.417969 4.105468 6.699219zm0 0"/><path d="m256 423.21875c-4.152344 0-7.519531 3.363281-7.519531 7.519531v10.027344c0 4.15625 3.367187 7.523437 7.519531 7.523437 4.15625 0 7.523438-3.367187 7.523438-7.523437v-10.027344c0-4.152343-3.367188-7.519531-7.523438-7.519531zm0 0"/><path d="m263.523438 360.539062c0-4.15625-3.367188-7.523437-7.523438-7.523437-4.152344 0-7.519531 3.367187-7.519531 7.523437v10.027344c0 4.15625 3.367187 7.523438 7.519531 7.523438 4.15625 0 7.523438-3.367188 7.523438-7.523438zm0 0"/><path d="m263.523438 395.636719c0-4.152344-3.367188-7.519531-7.523438-7.519531-4.152344 0-7.519531 3.367187-7.519531 7.519531v10.03125c0 4.152343 3.367187 7.519531 7.519531 7.519531 4.15625 0 7.523438-3.367188 7.523438-7.519531zm0 0"/><path d="m177.730469 429.914062c1.316406 2.644532 3.976562 4.171876 6.738281 4.171876 1.128906 0 2.269531-.253907 3.347656-.789063 3.71875-1.851563 5.234375-6.367187 3.382813-10.085937l-4.472657-8.980469c-1.851562-3.714844-6.363281-5.230469-10.085937-3.378907-3.71875 1.851563-5.230469 6.367188-3.378906 10.085938zm0 0"/><path d="m130.800781 335.648438c1.316407 2.644531 3.976563 4.171874 6.738281 4.171874 1.125 0 2.269532-.253906 3.347657-.789062 3.71875-1.851562 5.230469-6.367188 3.378906-10.085938l-4.46875-8.976562c-1.851563-3.71875-6.367187-5.230469-10.085937-3.378906-3.71875 1.851562-5.230469 6.367187-3.378907 10.082031zm0 0"/><path d="m146.445312 367.070312c1.3125 2.644532 3.972657 4.171876 6.738282 4.171876 1.125 0 2.269531-.253907 3.34375-.789063 3.71875-1.851563 5.234375-6.367187 3.382812-10.085937l-4.46875-8.976563c-1.851562-3.71875-6.367187-5.234375-10.085937-3.382813-3.71875 1.851563-5.234375 6.367188-3.382813 10.085938zm0 0"/><path d="m162.085938 398.492188c1.316406 2.644531 3.976562 4.171874 6.742187 4.171874 1.125 0 2.269531-.253906 3.34375-.789062 3.71875-1.851562 5.234375-6.367188 3.382813-10.085938l-4.46875-8.976562c-1.851563-3.71875-6.367188-5.234375-10.085938-3.382812-3.71875 1.851562-5.234375 6.367187-3.382812 10.085937zm0 0"/><path d="m128.621094 297.523438-4.46875-8.976563c-1.851563-3.71875-6.363282-5.230469-10.085938-3.378906-3.71875 1.851562-5.230468 6.367187-3.378906 10.085937l4.46875 8.976563c1.316406 2.640625 3.976562 4.171875 6.738281 4.171875 1.128907 0 2.269531-.257813 3.347657-.792969 3.71875-1.851563 5.230468-6.367187 3.378906-10.085937zm0 0"/><path d="m335.359375 410.851562c-3.71875-1.851562-8.234375-.335937-10.085937 3.378907l-4.472657 8.980469c-1.851562 3.71875-.335937 8.234374 3.382813 10.085937 1.078125.535156 2.21875.789063 3.347656.789063 2.761719 0 5.421875-1.53125 6.738281-4.171876l4.46875-8.976562c1.851563-3.71875.339844-8.234375-3.378906-10.085938zm0 0"/><path d="m343.171875 402.664062c2.765625 0 5.425781-1.53125 6.742187-4.171874l4.46875-8.976563c1.851563-3.71875.335938-8.234375-3.382812-10.085937-3.71875-1.851563-8.234375-.335938-10.085938 3.382812l-4.46875 8.976562c-1.851562 3.71875-.335937 8.234376 3.382813 10.085938 1.074219.535156 2.21875.789062 3.34375.789062zm0 0"/><path d="m390.105469 308.402344c2.761719 0 5.421875-1.53125 6.738281-4.171875l4.46875-8.976563c1.851562-3.71875.339844-8.234375-3.378906-10.085937-3.71875-1.851563-8.234375-.339844-10.085938 3.378906l-4.46875 8.976563c-1.851562 3.71875-.339844 8.234374 3.378906 10.085937 1.078126.535156 2.21875.792969 3.347657.792969zm0 0"/><path d="m374.460938 339.820312c2.761718 0 5.421874-1.527343 6.738281-4.171874l4.46875-8.976563c1.851562-3.714844.339843-8.230469-3.378907-10.082031-3.71875-1.851563-8.234374-.339844-10.085937 3.378906l-4.46875 8.976562c-1.851563 3.71875-.339844 8.234376 3.378906 10.085938 1.078125.535156 2.222657.789062 3.347657.789062zm0 0"/><path d="m358.816406 371.242188c2.765625 0 5.425782-1.527344 6.738282-4.171876l4.472656-8.976562c1.851562-3.71875.335937-8.234375-3.382813-10.085938-3.71875-1.851562-8.234375-.335937-10.085937 3.382813l-4.46875 8.976563c-1.851563 3.71875-.335938 8.234374 3.382812 10.085937 1.074219.535156 2.21875.789063 3.34375.789063zm0 0"/></svg>