<svg height="512pt" viewBox="0 -36 512.00151 512" width="512pt" xmlns="http://www.w3.org/2000/svg"><path d="m511.125 389.71875c-1.726562-6.316406-5.808594-11.585938-11.496094-14.828125l-89.363281-51.015625c-4.742187-5.472656-11.734375-8.949219-19.527344-8.949219-14.242187 0-25.828125 11.585938-25.828125 25.828125 0 3.4375.679688 6.71875 1.90625 9.722656l-88.785156 49.273438c-3.269531-5.339844-8.429688-9.402344-14.539062-11.261719v-99.730469c10.597656-3.222656 19.960937-15.058593 17.75-30.144531l91.511718-50.789062c4.382813 4.242187 10.253906 6.957031 16.75 7.253906v78.09375c0 4.140625 3.355469 7.5 7.5 7.5 4.140625 0 7.5-3.359375 7.5-7.5 0 0-.027344-81.730469-.0625-82.03125 7.257813-4.578125 12.09375-12.660156 12.09375-21.855469 0-14.242187-11.585937-25.828125-25.828125-25.828125-4.570312 0-8.867187 1.199219-12.59375 3.292969-.148437-.085938-95.425781-52.9375-96.339843-53.386719-.136719-2.285156-.570313-4.488281-1.261719-6.578125v-82.265625c0-13.519531-11-24.519531-24.519531-24.519531-13.519532 0-24.515626 11-24.515626 24.519531v82.265625c-.695312 2.089844-1.128906 4.292969-1.261718 6.578125-.914063.449219-95.90625 53.125-95.90625 53.125-.207032.113281-.40625.242188-.609375.359375-3.695313-2.039062-7.9375-3.207031-12.449219-3.207031-14.242188 0-25.828125 11.585937-25.828125 25.828125 0 9.1875 4.824219 17.265625 12.074219 21.84375-.003906.246094-.015625.496094-.015625.742188 0 0 .035156 105.867187.085937 106.808593-2.191406 1.375-4.160156 3.066407-5.84375 5.015625l-89.363281 51.011719c-11.742187 6.699219-15.839844 21.707031-9.140625 33.445313 4.519531 7.917968 16.371094 16.871093 33.449219 9.140624l9.300781-5.3125c3.59375-2.050781 4.847656-6.632812 2.792969-10.230468-2.054688-3.597656-6.632813-4.847656-10.230469-2.792969l-9.300781 5.308594c-4.554688 2.601562-10.382813 1.007812-12.984375-3.546875-2.601563-4.558594-1.007813-10.382813 3.546875-12.984375l75.914062-43.335938c.992188 6.648438 4.527344 12.46875 9.574219 16.453125l-41.636719 23.765625c-3.597656 2.054688-4.847656 6.636719-2.792969 10.234375 1.382813 2.421875 4.539063 5.527344 10.230469 2.792969 0 0 61.761719-33.78125 64.429688-35.554687 0 0 93.789062 52.011718 94.703125 52.457031.792968 13.535156 12.050781 24.300781 25.777344 24.300781 13.726562 0 24.984374-10.769531 25.777343-24.300781.914063-.449219 94.703125-52.457031 94.703125-52.457031 2.570313 1.710937 98.84375 55.203124 98.84375 55.203124 18.660156 8.886719 30.203125-3.453124 33.449219-9.140624s4.085937-12.300782 2.359375-18.617188zm-255.132812-114.847656c-5.96875 0-10.828126-4.855469-10.828126-10.828125 0-5.96875 4.859376-10.824219 10.828126-10.824219 5.972656 0 10.828124 4.855469 10.828124 10.824219 0 5.972656-4.855468 10.828125-10.828124 10.828125zm145.542968-85.589844c0 5.972656-4.855468 10.828125-10.828125 10.828125-5.96875 0-10.828125-4.855469-10.828125-10.828125 0-5.96875 4.859375-10.824219 10.828125-10.824219 5.972657 0 10.828125 4.855469 10.828125 10.824219zm-145.542968-85.21875c5.972656 0 10.828124 4.855469 10.828124 10.828125 0 5.96875-4.855468 10.824219-10.828124 10.824219-5.96875 0-10.828126-4.855469-10.828126-10.824219 0-5.972656 4.859376-10.828125 10.828126-10.828125zm0-89.0625c5.25 0 9.519531 4.269531 9.519531 9.519531v66.367188c-9-4.203125-16.085938-1.171875-19.035157 0v-66.367188c0-5.25 4.269532-9.519531 9.515626-9.519531zm-134.742188 163.640625c5.96875 0 10.824219 4.855469 10.824219 10.828125 0 5.96875-4.855469 10.828125-10.824219 10.828125-5.972656 0-10.828125-4.859375-10.828125-10.828125 0-5.972656 4.855469-10.828125 10.828125-10.828125zm0 172.941406c-5.972656 0-10.828125-4.859375-10.828125-10.828125 0-5.972656 4.855469-10.828125 10.828125-10.828125 5.96875 0 10.824219 4.855469 10.824219 10.828125 0 5.96875-4.855469 10.828125-10.824219 10.828125zm23.921875-1.105469c1.222656-3.003906 1.90625-6.285156 1.90625-9.722656 0-13.828125-10.925781-25.148437-24.59375-25.796875v-99.691406c13.667969-.648437 24.59375-11.972656 24.59375-25.796875 0-4.101562-.964844-7.980469-2.675781-11.429688l89.554687-49.699218c4.542969 7.417968 12.71875 12.378906 22.035157 12.378906 9.316406 0 17.496093-4.960938 22.039062-12.378906l89.453125 49.648437c-3.832031 7.984375-2.402344 14.976563-2.023437 16.730469l-91.515626 50.785156c-15-13.039062-31.253906-4.503906-35.90625 0l-70.363281-39.046875c-3.621093-2.011719-8.1875-.703125-10.195312 2.917969-2.011719 3.621094-.703125 8.1875 2.917969 10.199219l70.34375 39.039062c-3.398438 15.253907 7.15625 26.925781 17.75 30.144531v99.730469c-6.109376 1.859375-11.269532 5.921875-14.539063 11.261719zm110.820313 73.550782c-5.96875 0-10.828126-4.855469-10.828126-10.824219 0-5.972656 4.859376-10.828125 10.828126-10.828125 5.972656 0 10.828124 4.855469 10.828124 10.828125 0 5.96875-4.855468 10.824219-10.828124 10.824219zm123.917968-83.273438c0-5.96875 4.855469-10.828125 10.828125-10.828125 5.96875 0 10.828125 4.859375 10.828125 10.828125s-4.855468 10.828125-10.828125 10.828125c-5.972656 0-10.828125-4.859375-10.828125-10.828125zm115.828125 60.144532c-2.601562 4.558593-8.425781 6.152343-12.980469 3.546874l-76.054687-43.410156c5.050781-3.984375 8.585937-9.804687 9.578125-16.453125l75.910156 43.335938c7.132813 4.273437 4.808594 10.773437 3.546875 12.980469zm0 0"/></svg>