<?xml version="1.0" encoding="iso-8859-1"?>
<!-- Generator: Adobe Illustrator 19.0.0, SVG Export Plug-In . SVG Version: 6.00 Build 0)  -->
<svg xmlns="http://www.w3.org/2000/svg" xmlns:xlink="http://www.w3.org/1999/xlink" version="1.1" id="Layer_1" x="0px" y="0px" viewBox="0 0 512 512" style="enable-background:new 0 0 512 512;" xml:space="preserve" width="512" height="512">
<path d="M435.977,64.241C388.182,22.815,324.265,0,256,0C112.449,0,0,99.618,0,226.791c0,27.541,7.364,48.582,21.887,62.539  C33.916,300.89,50.553,307,70,307h88.366c-5.268,43.427-8.785,82.281-8.785,98c0,59,47.739,107,106.418,107s106.418-48,106.418-107  c0-5.092-0.366-12.651-1.088-22.467c-0.81-11.016-10.388-19.275-21.414-18.479c-11.016,0.811-19.289,10.397-18.479,21.413  c0.811,11.016,0.98,16.702,0.98,19.533c0,36.944-29.795,67-66.418,67s-66.418-30.056-66.418-67c0-12.69,3.114-49.708,9.082-98H443  c19.129,0,35.579-6.261,47.573-18.106C504.791,274.851,512,253.957,512,226.791C512,164.462,485.001,106.734,435.977,64.241z   M443,267H70c-15.582,0-30-4.871-30-40.209C40,122.048,134.878,40,256,40s216,82.048,216,186.791C472,267,451.678,267,443,267z   M174.785,116.562c6.006,9.27,3.36,21.654-5.91,27.66c-25.72,16.664-42.553,40.252-47.4,66.42  c-1.784,9.629-10.19,16.361-19.643,16.361c-1.209,0-2.434-0.11-3.665-0.338c-10.861-2.012-18.035-12.447-16.023-23.308  c6.869-37.083,29.946-70.006,64.981-92.706C156.395,104.646,168.779,107.292,174.785,116.562z M276,100c0,11.046-8.954,20-20,20  c-6.96,0-13.928,0.396-20.709,1.178c-0.778,0.09-1.552,0.134-2.316,0.134c-10.021,0-18.668-7.516-19.843-17.711  c-1.266-10.973,6.604-20.894,17.577-22.159C239.006,80.485,247.515,80,256,80C267.046,80,276,88.954,276,100z"/>















</svg>
