<svg height="512pt" viewBox="0 0 512 512.00004" width="512pt" xmlns="http://www.w3.org/2000/svg"><path d="m387.355469 324.945312c10.441406 18.667969 16.679687 39.398438 18.273437 60.730469 1.867188 24.003907-2.070312 48.105469-11.476562 70.269531-12.003906 27.101563-37.0625 46.160157-66.382813 50.492188-47.53125 7.417969-95.921875 7.417969-143.449219 0-29.921874-4.503906-55.359374-24.226562-67.179687-52.082031-17.21875-42.039063-14.492187-89.613281 7.417969-129.410157zm0 0" fill="#bdc3c7"/><path d="m403.683594 372.082031c-47.484375 16.480469-97.417969 24.808594-147.683594 24.628907-50.238281.179687-100.140625-8.148438-147.597656-24.628907 2.789062-15.953125 8.25-31.324219 16.15625-45.460937h262.796875c7.921875 14.144531 13.4375 29.507812 16.328125 45.460937zm0 0" fill="#95a5a5"/><g fill="#556080"><path d="m170.019531 336.15625-11.742187 29.480469c-1.335938 3.363281-4.589844 5.566406-8.207032 5.5625-1.121093.011719-2.230468-.199219-3.265624-.617188-4.5-1.839843-6.695313-6.941406-4.945313-11.476562l10.679687-26.660157zm0 0"/><path d="m216.804688 342.597656-5.03125 30.015625c-.71875 4.269531-4.410157 7.402344-8.738282 7.414063-.472656.015625-.945312-.015625-1.414062-.089844-2.320313-.367188-4.398438-1.644531-5.773438-3.550781s-1.933594-4.28125-1.550781-6.597657l4.851563-29.042968zm0 0"/><path d="m359.460938 332.445312 10.679687 26.660157c1.75 4.535156-.445313 9.636719-4.941406 11.476562-1.039063.417969-2.148438.628907-3.269531.617188-3.617188.003906-6.871094-2.199219-8.207032-5.5625l-11.742187-29.480469zm0 0"/><path d="m312.851562 340.746094 4.851563 29.042968c.382813 2.316407-.175781 4.691407-1.550781 6.597657s-3.453125 3.183593-5.773438 3.550781c-.46875.074219-.941406.105469-1.414062.089844-4.328125-.011719-8.019532-3.144532-8.738282-7.414063l-5.03125-30.015625zm0 0"/><path d="m264.828125 344.097656v27.101563c0 4.875-3.953125 8.828125-8.828125 8.828125s-8.828125-3.953125-8.828125-8.828125v-27.101563zm0 0"/></g><path d="m512 229.515625c0 3.355469-.167969 6.703125-.503906 10.039063-1.644532 15.535156-10.128906 29.523437-23.144532 38.160156-69.257812 44.472656-150.050781 67.617187-232.351562 66.5625-82.296875 1.054687-163.09375-22.089844-232.351562-66.5625-13.015626-8.636719-21.5-22.625-23.144532-38.160156-.335937-3.335938-.503906-6.683594-.503906-10.039063 0-87.746094 114.582031-229.515625 256-229.515625s256 141.769531 256 229.515625zm0 0" fill="#805333"/><path d="m467.863281 217.75c0 2.941406-.140625 5.859375-.425781 8.75-1.3125 13.417969-8.464844 25.582031-19.550781 33.261719-58.105469 38.648437-126.519531 58.875-196.300781 58.03125-69.78125.84375-138.191407-19.382813-196.296876-58.03125-11.089843-7.679688-18.238281-19.84375-19.554687-33.261719-.28125-2.898438-.425781-5.8125-.425781-8.75 0-76.507812 96.804687-200.09375 216.277344-200.09375 119.472656 0 216.277343 123.585938 216.277343 200.09375zm0 0" fill="#cb8252"/><path d="m146.644531 65.324219c-26.660156 19.539062-48.875 44.511719-65.175781 73.269531-2.308594 4.414062-2.648438 9.597656-.945312 14.277344 1.703124 4.679687 5.300781 8.429687 9.90625 10.324218l18.363281 7.519532c8.769531 3.636718 18.839843-.355469 22.738281-9.011719 7.582031-17.046875 22.121094-43.835937 43.6875-59.144531 4.035156-2.886719 6.664062-7.347656 7.230469-12.277344.566406-4.929688-.980469-9.867188-4.253907-13.597656l-7.726562-8.824219c-6.050781-6.960937-16.445312-8.066406-23.824219-2.535156zm0 0" fill="#d59b75"/></svg>