<svg xmlns="http://www.w3.org/2000/svg" viewBox="0 0 217.13 417.032"><defs><style>.a{fill:#fff;}</style></defs><path class="a" d="M0,308.47V172.959C0,124.685,46.2,97.3,96.16,92.632c-2.224-11.172,7.4-21.59,18.534-29.434,7.2-5.075,17.711-15.133,10.813-24.25-6.159-8.142-15.273-14.081-22.349-21.407C94,8.078,108.434-6.389,117.6,3.1,130.292,16.2,155.58,31.508,147,53.658c-3.825,9.865-9.483,18.185-18.079,24.4-3.249,2.345-6.835,4.468-9.789,7.179-3.99,3.677-3.892,2.712-.247,5.983a10.8,10.8,0,0,1,.849.925c48.368,2.577,97.4,28.1,97.4,80.8V308.47A108.565,108.565,0,0,1,0,308.47Zm20.439-.01a88.128,88.128,0,1,0,176.257,0h0V245.675c-28.5,9.807-57.053,13.286-83.056,13.286a330.32,330.32,0,0,1-93.2-13.882Zm99.622-70.25c24.4-.525,50.791-4.387,76.635-14.27V172.957c0-39.073-37.228-57.974-76.635-60.337ZM20.439,172.949V223.6A317.81,317.81,0,0,0,99.625,237.9V112.922C59.337,116.367,20.439,137.116,20.439,172.949Zm9.469,43.3S23.877,180.7,36.986,153.71s55.54-30.926,55.54-30.926V226.273s-.807.736-5.255.736C80.385,227.01,64.769,225.245,29.908,216.248Z" transform="translate(0 0)"/></svg>