<?xml version="1.0" encoding="iso-8859-1"?>
<!-- Generator: Adobe Illustrator 18.0.0, SVG Export Plug-In . SVG Version: 6.00 Build 0)  -->
<!DOCTYPE svg PUBLIC "-//W3C//DTD SVG 1.1//EN" "http://www.w3.org/Graphics/SVG/1.1/DTD/svg11.dtd">
<svg version="1.1" id="Capa_1" xmlns="http://www.w3.org/2000/svg" xmlns:xlink="http://www.w3.org/1999/xlink" x="0px" y="0px"
	 viewBox="0 0 47.336 47.336" style="enable-background:new 0 0 47.336 47.336;" xml:space="preserve">
<g>
	<path style="fill:#E57E25;" d="M23.668,31.371c8.725,0,12.99,2.557,14.425,3.66c0.781,0.6,1.716,1.004,2.701,1.044
		c2.662,0.11,4.612-2.06,5.562-4.11c1.278-2.758,1.268-5.952,0.195-8.797c-5.726-15.183-15.78-23-21.215-23c-1.169,0-1.831,0-3,0
		c-6.38,0-15.825,7.817-21.551,23c-1.073,2.844-1.083,6.039,0.195,8.797c0.95,2.05,2.9,4.22,5.562,4.11
		c0.984-0.041,1.92-0.444,2.701-1.044C10.678,33.927,14.943,31.371,23.668,31.371z"/>
	<circle style="fill:#F0C419;" cx="14.668" cy="21.371" r="7"/>
	<circle style="fill:#F0C419;" cx="37.668" cy="25.371" r="4"/>
	<path style="fill:#FBD490;" d="M33.159,32.646c-2.298-0.711-5.399-1.276-9.491-1.276c-3.275,0-5.922,0.36-8.026,0.869l-1.24,8.814
		c-0.507,3.211,1.975,6.115,5.225,6.115h9.618c3.251,0,5.732-2.904,5.225-6.115L33.159,32.646z"/>
	<path style="fill:#F0C419;" d="M40.094,10.748c-3.548-4.781-7.384-7.931-10.619-9.4c-2.271,1.289-3.807,3.725-3.807,6.523
		c0,4.142,3.358,7.5,7.5,7.5C36.291,15.371,38.965,13.462,40.094,10.748z"/>
</g>
<g>
</g>
<g>
</g>
<g>
</g>
<g>
</g>
<g>
</g>
<g>
</g>
<g>
</g>
<g>
</g>
<g>
</g>
<g>
</g>
<g>
</g>
<g>
</g>
<g>
</g>
<g>
</g>
<g>
</g>
</svg>
