<svg xmlns="http://www.w3.org/2000/svg" viewBox="0 0 217.13 417.032"><defs><style>.a{fill:#fff;}</style></defs><g transform="translate(-99.952 -0.001)"><path class="a" d="M219.683,92.146a10.882,10.882,0,0,0-.849-.925c-3.644-3.272-3.742-2.306.247-5.983,2.955-2.712,6.541-4.834,9.79-7.18,8.6-6.213,14.254-14.534,18.079-24.4,8.582-22.15-16.706-37.453-29.4-50.562-9.168-9.485-23.6,4.982-14.444,14.447,7.076,7.325,16.19,13.264,22.349,21.407,6.9,9.116-3.613,19.174-10.814,24.249-11.133,7.844-20.757,18.262-18.533,29.434-49.964,4.668-96.16,32.052-96.16,80.327v135.51a108.565,108.565,0,0,0,217.13,0V172.95C317.085,120.247,268.05,94.723,219.683,92.146Zm-99.292,80.8c0-35.833,38.9-56.581,79.186-60.027V237.9A317.816,317.816,0,0,1,120.391,223.6ZM296.648,308.461a88.128,88.128,0,1,1-176.257,0V245.08a330.321,330.321,0,0,0,93.2,13.882c26,0,54.556-3.479,83.056-13.286v62.785Zm0-84.521c-25.844,9.883-52.237,13.746-76.635,14.271V112.621c39.407,2.363,76.635,21.264,76.635,60.337Zm-6.913-7.737s-46.688,13.073-62.567,10.271V122.813C269.429,130.753,296.625,143.533,289.735,216.2Z"/></g></svg>