<?xml version="1.0" encoding="iso-8859-1"?>
<!-- Generator: Adobe Illustrator 19.0.0, SVG Export Plug-In . SVG Version: 6.00 Build 0)  -->
<svg version="1.1" id="Capa_1" xmlns="http://www.w3.org/2000/svg" xmlns:xlink="http://www.w3.org/1999/xlink" x="0px" y="0px"
	 viewBox="0 0 512 512" style="enable-background:new 0 0 512 512;" xml:space="preserve">
<path style="fill:#DFCCC0;" d="M285.151,15.178c-13.384,9.929-23.013,23.607-27.846,39.556L256,59.042l-1.305-4.309
	c-4.833-15.949-14.462-29.627-27.846-39.556S197.582,0,180.917,0v30.033c20.881,0,38.979,13.427,45.035,33.41l6.667,22.001
	L256,78.36l23.381,7.085l6.667-22.001c6.056-19.983,24.154-33.41,45.035-33.41V0C314.419,0,298.535,5.249,285.151,15.178z"/>
<path style="fill:#C8AD92;" d="M279.382,85.445l6.667-22.001c6.055-19.983,24.153-33.41,45.034-33.41V0
	c-16.664,0-32.548,5.249-45.932,15.178c-13.384,9.929-23.013,23.607-27.846,39.556L256,59.042V78.36L279.382,85.445z"/>
<path style="fill:#57555C;" d="M190.928,149.165c-24.841,0-45.05-20.209-45.05-45.05s20.209-45.05,45.05-45.05
	s45.05,20.209,45.05,45.05S215.768,149.165,190.928,149.165z"/>
<path style="fill:#3C3A41;" d="M321.072,149.165c-24.841,0-45.05-20.209-45.05-45.05s20.209-45.05,45.05-45.05
	s45.05,20.209,45.05,45.05S345.913,149.165,321.072,149.165z"/>
<path style="fill:#FEA832;" d="M256,195.217c-37.537,0-68.076-30.539-68.076-68.076S218.463,59.066,256,59.066
	s68.076,30.539,68.076,68.076S293.537,195.217,256,195.217z"/>
<path style="fill:#FE9E24;" d="M324.076,127.141c0-37.537-30.539-68.076-68.076-68.076v136.151
	C293.537,195.217,324.076,164.678,324.076,127.141z"/>
<path style="fill:#57555C;" d="M316.067,270.3H195.933v-85.094c0-33.121,26.946-60.067,60.067-60.067s60.067,26.946,60.067,60.067
	V270.3z"/>
<path style="fill:#3C3A41;" d="M316.067,185.205c0-33.121-26.946-60.067-60.067-60.067V270.3h60.067V185.205z"/>
<path style="fill:#FEDB41;" d="M256,512l-35.75-42.904c-25.417-30.504-40.983-67.506-45.013-107.006
	c-4.03-39.501,3.74-78.883,22.473-113.892l4.245-7.932h108.092l4.245,7.932c18.733,35.009,26.504,74.392,22.473,113.892
	c-4.03,39.5-19.596,76.502-45.013,107.006L256,512z"/>
<path style="fill:#FE9E24;" d="M314.291,248.198l-4.245-7.932H256V512l35.75-42.904c25.417-30.504,40.983-67.506,45.013-107.006
	C340.794,322.59,333.023,283.207,314.291,248.198z"/>
<g>
	<path style="fill:#57555C;" d="M320.461,380.613c-42.773-6.9-86.148-6.9-128.92,0l-13.011,2.527
		c2.073,9.817,4.874,19.426,8.383,28.757l9.411-1.634c39.599-6.387,79.756-6.387,119.355,0l9.44,1.554
		c3.495-9.306,6.286-18.888,8.354-28.677L320.461,380.613z"/>
	<path style="fill:#57555C;" d="M191.539,310.535l-15.261,2.637c-1.502,10.293-2.193,20.721-2.056,31.202l22.1-4.189
		c39.599-6.387,79.756-6.387,119.355,0l22.112,3.566c0.101-10.14-0.576-20.227-2.009-30.191l-15.319-3.024
		C277.687,303.637,234.313,303.637,191.539,310.535z"/>
</g>
<g>
	<path style="fill:#3C3A41;" d="M315.677,410.264l9.44,1.554c3.495-9.306,6.286-18.888,8.354-28.677l-13.011-2.527
		c-21.387-3.45-42.924-5.175-64.461-5.175v30.034C275.939,405.474,295.878,407.071,315.677,410.264z"/>
	<path style="fill:#3C3A41;" d="M315.677,340.186l22.112,3.566c0.101-10.14-0.576-20.227-2.009-30.191l-15.319-3.024
		c-21.387-3.45-42.924-5.175-64.461-5.175v30.034C275.939,335.396,295.878,336.993,315.677,340.186z"/>
</g>
<path style="fill:#DFCCC0;" d="M495.435,486.858l-39.033-16.39c-73.366-30.809-126.626-95.788-142.473-173.818l-23.242-114.448
	h31.817c34.357,0,67.696,12.264,93.875,34.53c26.176,22.265,43.642,53.212,49.182,87.142L495.435,486.858z"/>
<path style="fill:#EFE6DE;" d="M16.565,486.859L46.44,303.874c5.539-33.93,23.006-64.877,49.182-87.142
	c26.179-22.267,59.518-34.53,93.875-34.53h31.817L198.072,296.65c-15.847,78.03-69.108,143.009-142.473,173.817L16.565,486.859z"/>
<g>
</g>
<g>
</g>
<g>
</g>
<g>
</g>
<g>
</g>
<g>
</g>
<g>
</g>
<g>
</g>
<g>
</g>
<g>
</g>
<g>
</g>
<g>
</g>
<g>
</g>
<g>
</g>
<g>
</g>
</svg>
